PathFileType	4	(X/Y/Z)	\\Move.snu.ac.kr\motion\Animal\091204_091205_Bird\091205_bird\Project 2\Capture day 2\Session 1\pigeon_007_new_after_delete_unlabel.trc
DataRate	CameraRate	NumFrames	NumMarkers	Units	OrigDataRate	OrigDataStartFrame	OrigNumFrames
240.0	240.0	16	14	mm	240.0	84	5319
Frame#	Time	14MarkersBird:Head			14MarkersBird:C_back			14MarkersBird:Spine			14MarkersBird:L-shoulder			14MarkersBird:L-elbow			14MarkersBird:L-wrist			14MarkersBird:L-hand			14MarkersBird:R-shoulder			14MarkersBird:R-elbow			14MarkersBird:R-Wrist			14MarkersBird:R-hand			14MarkersBird:C_Tail			14MarkersBird:L-Tale			14MarkersBird:R-Tale			
		X1	Y1	Z1	X2	Y2	Z2	X3	Y3	Z3	X4	Y4	Z4	X5	Y5	Z5	X6	Y6	Z6	X7	Y7	Z7	X8	Y8	Z8	X9	Y9	Z9	X10	Y10	Z10	X11	Y11	Z11	X12	Y12	Z12	X13	Y13	Z13	X14	Y14	Z14	

2638	10.988	-1745.99280	1000.27527	-1590.48901	-1800.69177	996.76196	-1605.02991	-1852.98474	988.58405	-1614.11865	-1767.00366	982.88867	-1622.03931	-1798.31396	986.85480	-1643.61328	-1756.04187	985.00983	-1648.70813	-1742.87451	962.92462	-1645.53259	-1775.84534	992.48029	-1576.05835	-1810.82690	996.00177	-1559.73462	-1770.06689	991.35492	-1549.69910	-1751.69226	960.28278	-1539.31580	-1950.58105	908.08704	-1628.16833	-1881.57849	916.94855	-1694.62463	-1919.68408	951.28387	-1526.60962	
2639	10.992	-1736.24792	998.62073	-1588.78870	-1790.85913	995.62671	-1602.64758	-1843.05676	987.54694	-1612.10156	-1757.49622	982.67340	-1619.99744	-1792.81213	995.16180	-1640.27551	-1751.62671	995.85620	-1650.67212	-1742.82642	972.87939	-1656.47021	-1766.51660	991.66156	-1575.05786	-1803.60181	1003.20874	-1565.06384	-1765.61646	1002.09985	-1546.75977	-1753.92444	972.84686	-1528.64246	-1939.99023	905.86749	-1627.08337	-1868.44348	917.75189	-1694.99182	-1908.34839	950.77423	-1523.53589	
2640	10.996	-1726.67981	997.02094	-1586.98987	-1781.10779	994.23218	-1600.25989	-1833.12463	986.20142	-1610.29431	-1747.92627	982.41364	-1617.78101	-1785.76526	1000.85376	-1630.79504	-1747.70764	1006.94513	-1649.12610	-1745.82300	985.94629	-1663.98059	-1757.15161	990.84259	-1574.16113	-1793.23474	1007.73944	-1572.87195	-1760.92603	1012.61389	-1547.18091	-1758.05701	988.42218	-1521.59216	-1928.96106	902.86206	-1625.97852	-1855.24573	919.11639	-1695.61133	-1897.14587	949.94769	-1520.58984	
2641	11.000	-1717.30554	995.47784	-1585.06177	-1771.43591	992.63391	-1597.90967	-1823.43262	984.69940	-1608.70935	-1738.42651	982.03406	-1615.50208	-1777.81018	1003.85791	-1620.91138	-1743.76440	1017.16498	-1644.03882	-1749.43823	1002.12134	-1665.47705	-1747.75830	990.02911	-1573.37549	-1781.12830	1009.18829	-1580.86340	-1755.27673	1021.91937	-1551.01245	-1762.10486	1006.88263	-1520.65234	-1917.92566	899.72620	-1625.21777	-1842.72156	921.01941	-1696.29321	-1886.38550	948.48505	-1518.04529	
2642	11.004	-1708.09497	993.98590	-1583.02222	-1761.84155	990.88739	-1595.64014	-1813.75281	982.97858	-1607.08435	-1729.10388	981.39990	-1613.29553	-1766.46301	1004.38110	-1613.25977	-1739.05212	1025.60620	-1636.54211	-1750.99219	1019.79358	-1660.33899	-1738.34436	989.22675	-1572.70837	-1769.36023	1008.88300	-1586.42505	-1748.04175	1029.41809	-1557.12646	-1763.92004	1026.52966	-1526.73376	-1907.35046	897.06995	-1625.19934	-1831.23120	923.07318	-1696.80969	-1876.40466	946.27417	-1516.17065	
2643	11.008	-1698.95471	992.52393	-1580.88403	-1752.32288	989.04822	-1593.49414	-1804.17639	980.90625	-1605.40942	-1719.94946	980.44275	-1611.26941	-1753.63892	1004.91272	-1607.05310	-1732.86536	1031.88623	-1628.47229	-1748.96191	1036.39612	-1649.64258	-1728.88098	988.41510	-1572.13501	-1757.30518	1007.58362	-1590.30981	-1739.05688	1035.05408	-1563.69568	-1761.76575	1044.75208	-1538.74255	-1897.57080	895.29089	-1626.13635	-1820.72107	924.80939	-1697.00037	-1867.38550	943.46051	-1515.11633	
2644	11.012	-1689.77966	991.10992	-1578.71899	-1742.87805	987.17194	-1591.51465	-1794.68604	978.60522	-1603.70325	-1710.82117	979.27289	-1609.50415	-1739.84692	1005.95776	-1602.42566	-1724.81006	1036.06494	-1621.90125	-1742.92859	1049.39819	-1636.22217	-1719.59827	987.29852	-1570.97388	-1744.87415	1006.34314	-1592.18933	-1728.74036	1038.95935	-1568.54211	-1754.83521	1059.38086	-1553.23975	-1888.62891	894.48718	-1627.90051	-1810.75085	926.00537	-1696.82104	-1859.17957	940.29425	-1514.78638	
2645	11.017	-1680.58044	989.70758	-1576.63843	-1733.50500	985.31409	-1589.74500	-1785.26465	976.19843	-1601.98413	-1701.58521	978.07697	-1608.03906	-1726.26672	1007.09070	-1599.50293	-1715.20313	1038.30505	-1618.53479	-1733.30872	1057.44202	-1624.33813	-1710.46655	985.98267	-1569.16492	-1732.16309	1005.82275	-1591.86206	-1717.93616	1041.30115	-1569.66589	-1743.54993	1069.60669	-1564.93494	-1880.23206	894.44360	-1630.02893	-1800.69653	926.84021	-1696.33801	-1851.34155	937.02948	-1514.81311	
2646	11.021	-1671.39941	988.25311	-1574.70129	-1724.20190	983.53021	-1588.22791	-1775.89514	973.80853	-1600.27026	-1692.21021	976.97302	-1606.81677	-1714.11987	1007.25891	-1598.54065	-1704.90002	1038.54883	-1619.13721	-1720.90637	1061.02039	-1618.40088	-1701.43188	984.45807	-1566.79150	-1719.90259	1005.93713	-1589.11206	-1707.65662	1042.10339	-1566.06824	-1729.69092	1075.78601	-1568.70496	-1871.89087	894.74286	-1631.94592	-1790.03381	927.70966	-1695.64868	-1843.35010	933.95813	-1514.70105	
2647	11.025	-1662.19080	986.78992	-1572.91504	-1714.96704	981.87579	-1587.00659	-1766.56030	971.55853	-1598.58020	-1682.75940	975.96490	-1605.67139	-1704.12402	1005.73462	-1599.70020	-1694.44714	1036.49902	-1623.39673	-1706.92163	1061.28687	-1620.89612	-1692.32617	982.93756	-1563.80750	-1709.03125	1006.07135	-1583.94836	-1698.52942	1041.02893	-1558.18018	-1715.72852	1078.21533	-1562.29980	-1863.19177	894.97479	-1633.20215	-1778.51343	928.77722	-1694.77344	-1834.79297	931.31262	-1514.02808	
2648	11.029	-1652.87671	985.43689	-1571.29089	-1705.79834	980.40643	-1586.12390	-1757.24292	969.57117	-1596.93237	-1673.26843	974.99829	-1604.44263	-1695.55981	1002.94641	-1602.74597	-1683.74866	1031.85718	-1630.34265	-1692.63525	1058.31909	-1631.19580	-1683.53687	980.92792	-1561.10046	-1699.65308	1005.60419	-1576.98328	-1690.38501	1037.53345	-1547.35559	-1703.28125	1076.27014	-1547.22327	-1853.98535	894.88055	-1633.58728	-1766.26990	929.75531	-1693.66357	-1825.50171	929.18646	-1512.63831	
2649	11.033	-1643.39160	984.31177	-1569.86536	-1696.69397	979.17767	-1585.62305	-1747.92590	967.96936	-1595.34509	-1663.71460	973.97559	-1603.12402	-1686.72583	999.74902	-1607.00598	-1672.38391	1024.42700	-1638.67285	-1678.18750	1050.95996	-1646.15662	-1674.71497	978.42804	-1559.12622	-1690.92212	1004.13190	-1569.21606	-1682.23547	1031.29895	-1535.16235	-1691.98621	1069.06042	-1527.14417	-1844.32886	894.35541	-1633.08972	-1753.82666	930.09473	-1692.28625	-1815.55798	927.50989	-1510.68152	
2650	11.038	-1633.69434	983.46429	-1568.65173	-1687.65198	978.24506	-1585.54688	-1738.59216	966.87585	-1593.83679	-1654.05688	972.78040	-1601.83630	-1676.59680	996.26477	-1611.67236	-1659.82446	1014.21271	-1646.87134	-1662.60901	1038.48059	-1661.67822	-1665.49915	976.21960	-1557.26160	-1681.78040	1001.37769	-1561.28931	-1672.82251	1022.32819	-1523.05139	-1679.87634	1056.37830	-1505.91431	-1834.30396	893.38458	-1631.79102	-1741.89392	929.35571	-1690.63794	-1805.20251	926.15216	-1508.48413	
2651	11.042	-1623.83582	982.84570	-1567.65186	-1678.67786	977.53912	-1585.84985	-1729.22437	966.41351	-1592.42590	-1644.26379	971.33221	-1600.67419	-1667.26868	992.20203	-1616.41101	-1645.68140	1001.48645	-1653.31714	-1645.12195	1021.44763	-1674.18762	-1655.84302	974.39185	-1555.52417	-1675.41736	998.06085	-1553.14209	-1661.08850	1010.91064	-1512.35632	-1665.14954	1038.89282	-1486.74915	-1823.93518	892.00519	-1629.78577	-1731.11926	927.41229	-1688.71106	-1794.70203	925.11499	-1506.34131	
2652	11.046	-1613.86511	982.37329	-1566.84546	-1667.91992	975.20587	-1584.14856	-1719.80542	966.70520	-1591.13062	-1634.28296	969.68103	-1599.64526	-1654.67957	986.47717	-1620.91321	-1630.10266	986.89996	-1656.59900	-1625.81470	1001.14026	-1681.43579	-1645.78467	972.90491	-1553.90747	-1663.96997	993.48212	-1545.09082	-1646.80713	997.44543	-1504.28430	-1647.38855	1017.62378	-1472.13257	-1813.21460	890.28882	-1627.08496	-1721.88403	924.41486	-1686.44116	-1784.29504	924.57727	-1504.41235	
2653	11.050	-1603.75061	981.94244	-1566.15698	-1657.73596	975.60999	-1583.36853	-1710.31824	967.87372	-1589.96960	-1624.04810	968.00153	-1598.71021	-1641.29541	979.18689	-1624.47595	-1613.89905	971.47296	-1655.76538	-1605.64746	978.89026	-1682.15967	-1635.36230	971.71887	-1552.40515	-1650.84473	987.70526	-1537.30603	-1630.73962	982.51520	-1499.83301	-1627.31421	993.63641	-1463.82825	-1802.27014	888.45276	-1623.58801	-1714.22925	920.69519	-1683.72461	-1774.14636	924.70483	-1502.75134	
